<?xml version="1.0" standalone="no"?>
    <svg version="1.0" xmlns="http://www.w3.org/2000/svg" width="512" height="512" viewBox="0 0 512 512">
    <g transform="translate(0,512) scale(0.1,-0.1)" fill="#000000">
    <path d="M0 2595 l0 -1585 889 0 c964 0 965 0 1143 56 279 88 480 269 567 510
    98 270 75 661 -52 884 -44 79 -149 180 -222 214 -58 27 -163 55 -215 56 -15 1
    -4 7 29 16 192 52 335 196 388 394 27 97 24 336 -6 445 -85 320 -327 526 -681
    580 -77 12 -256 15 -967 15 l-873 0 0 -1585z m1703 1011 c130 -47 190 -190
    168 -405 -12 -109 -34 -170 -81 -224 -57 -65 -73 -67 -597 -67 l-463 0 0 355
    0 355 468 0 c364 -1 475 -4 505 -14z m79 -1224 c142 -70 200 -189 201 -407 0
    -87 -4 -122 -21 -169 -30 -82 -68 -134 -127 -171 -96 -61 -78 -59 -612 -63
    l-493 -3 0 426 0 426 493 -3 492 -3 67 -33z"/>
    <path d="M3322 3798 l3 -193 653 -3 652 -2 0 195 0 195 -655 0 -655 0 2 -192z"/>
    <path d="M3783 3359 c-177 -27 -352 -91 -480 -176 -194 -128 -361 -360 -441
    -613 -58 -182 -67 -247 -67 -465 0 -184 2 -209 27 -306 103 -408 327 -662 688
    -783 143 -48 256 -66 445 -73 485 -17 862 136 1033 419 57 95 102 258 102 369
    l0 49 -280 0 -280 0 0 -23 c0 -85 -83 -198 -181 -248 -166 -84 -432 -88 -603
    -10 -75 34 -160 111 -203 183 -37 61 -73 189 -73 260 l0 48 819 0 818 0 7 38
    c11 66 6 238 -9 355 -71 541 -334 856 -803 963 -81 18 -428 27 -519 13z m330
    -460 c194 -30 319 -148 372 -354 8 -32 15 -74 15 -92 l0 -33 -520 0 -520 0 6
    28 c80 324 331 500 647 451z"/>
    </g>
</svg>
