<?xml version="1.0" standalone="no"?>
<svg version="1.0" xmlns="http://www.w3.org/2000/svg"
 width="250" height="250" viewBox="0 0 250 250"
 preserveAspectRatio="xMidYMid meet">

    <g transform="translate(0,250) scale(0.1,-0.1)" fill="#0057ff" >
    <path d="M0 1250 l0 -1250 1250 0 1250 0 0 1250 0 1250 -1250 0 -1250 0 0
    -1250z m1051 537 c60 -23 113 -68 146 -124 31 -53 43 -167 24 -226 -18 -53
    -67 -115 -106 -134 l-34 -16 37 -17 c58 -26 118 -99 138 -166 42 -144 -25
    -287 -165 -353 l-56 -26 -302 -3 -303 -3 0 546 0 546 288 -3 c241 -3 294 -7
    333 -21z m929 -107 l0 -70 -265 0 -265 0 0 70 0 70 265 0 265 0 0 -70z m-178
    -181 c108 -23 201 -93 248 -188 25 -50 50 -157 50 -218 l0 -43 -276 0 -277 0
    6 -36 c7 -44 48 -99 88 -120 39 -20 129 -20 167 0 17 9 39 27 50 41 19 24 24
    25 126 25 66 0 106 -4 106 -10 0 -25 -54 -114 -91 -150 -23 -22 -66 -52 -97
    -67 -52 -26 -66 -28 -172 -28 -104 0 -121 3 -172 27 -161 75 -251 256 -220
    442 40 234 238 373 464 325z"/>
    <path d="M650 1496 l0 -136 111 0 c136 0 191 13 224 52 52 61 40 154 -24 192
    -28 16 -58 20 -173 24 l-138 5 0 -137z"/>
    <path d="M650 1040 l0 -140 133 0 c153 0 192 9 233 51 25 26 29 38 29 84 0 62
    -22 100 -76 127 -28 15 -61 18 -176 18 l-143 0 0 -140z"/>
    <path d="M1657 1326 c-21 -8 -48 -22 -59 -33 -20 -17 -48 -72 -48 -93 0 -6 57
    -10 160 -10 159 0 160 0 160 23 0 32 -35 84 -67 100 -44 23 -104 28 -146 13z"/>
    </g>
</svg>
