<?xml version="1.0" standalone="no"?>
    <svg version="1.0" xmlns="http://www.w3.org/2000/svg" width="2000" height="1421" viewBox="0 0 2000 1421">

    <g transform="translate(0,1421) scale(0.1,-0.1)" fill="#000000" stroke="none">
    <path d="M5285 10040 c4469 -4470 4215 -4221 4399 -4305 128 -58 179 -69 316
    -69 137 0 188 11 316 69 184 84 -70 -165 4399 4305 l4170 4170 -8885 0 -8885
    0 4170 -4170z"/>
    <path d="M0 7103 l0 -5988 2995 2995 2995 2995 -2992 2992 c-1646 1646 -2994
    2993 -2995 2993 -2 0 -3 -2694 -3 -5987z"/>
    <path d="M17002 10097 l-2992 -2992 2995 -2995 2995 -2995 0 5988 c0 3293 -1
    5987 -3 5987 -1 0 -1349 -1347 -2995 -2993z"/>
    <path d="M4110 2995 l-2995 -2995 8885 0 8885 0 -2995 2995 -2995 2995 -675
    -674 c-690 -688 -720 -715 -925 -843 -823 -513 -1717 -524 -2540 -30 -247 147
    -257 157 -975 873 l-675 674 -2995 -2995z"/>
    </g>
</svg>
