<?xml version="1.0" standalone="no"?>
<!DOCTYPE svg PUBLIC "-//W3C//DTD SVG 20010904//EN"
 "http://www.w3.org/TR/2001/REC-SVG-20010904/DTD/svg10.dtd">
<svg version="1.0" xmlns="http://www.w3.org/2000/svg"
  viewBox="0 0 306 273"
 preserveAspectRatio="xMidYMid meet">

<g transform="translate(0.000000,273.000000) scale(0.100000,-0.100000)"
fill="#FC3C17" stroke="none">
<path d="M695 2700 c-266 -58 -449 -187 -555 -390 -98 -189 -124 -299 -124
-520 1 -139 4 -177 23 -244 55 -196 113 -319 240 -511 99 -148 134 -191 263
-323 244 -249 493 -427 943 -672 l61 -33 199 112 c110 62 229 133 265 159 297
212 624 541 804 810 166 248 234 460 234 727 0 185 -28 300 -107 452 -90 171
-193 275 -349 353 -187 93 -410 119 -597 69 -108 -29 -279 -142 -406 -266
l-86 -85 -65 79 c-119 144 -274 250 -423 288 -77 20 -218 18 -320 -5z"/>
</g>
</svg>
